<svg xmlns="http://www.w3.org/2000/svg" viewBox="0 0 48 48">
  <path d="M23.9 32.6c4.7 0 8.6-3.8 8.6-8.6 0-4.7-3.8-8.6-8.6-8.6-4.7 0-8.6 3.8-8.6 8.6 0 4.7 3.9 8.6 8.6 8.6m-9.9 0c-4.7 0-8.6-3.8-8.6-8.6 0-4.7 3.8-8.6 8.6-8.6v17.2M33.8 42v-8.1h8.1c0 4.5-3.6 8.1-8.1 8.1M14 6v8.1H5.8C5.8 9.6 9.5 6 14 6m0 36v-8.1H5.9C5.8 38.4 9.5 42 14 42m29.7-10.6V16.7c2.5 1.5 4.2 4.2 4.2 7.4 0 3-1.7 5.8-4.2 7.3M16.5 4.2h14.7C29.8 1.7 27 0 23.9 0c-3.1 0-5.9 1.7-7.4 4.2m14.7 39.6H16.5c1.5 2.5 4.2 4.2 7.4 4.2 3 0 5.8-1.7 7.3-4.2m1.3-9.9c0 4.7-3.8 8.6-8.6 8.6-4.7 0-8.6-3.8-8.6-8.6h17.2m1.3-1.3c4.7 0 8.6-3.8 8.6-8.6 0-4.7-3.8-8.6-8.6-8.6v17.2m-1.3-18.5c0-4.7-3.8-8.6-8.6-8.6-4.7 0-8.6 3.8-8.6 8.6h17.2M4.1 31.4V16.7c-2.5 1.5-4.2 4.2-4.2 7.4 0 3 1.7 5.8 4.2 7.3m37.8-17.3h-8.1V6c4.5 0 8.1 3.6 8.1 8.1"/>
</svg>