<svg width="80" height="80" fill="none" xmlns="http://www.w3.org/2000/svg">
  <style>
    rect {
      fill: #0B0C10;
    }
    #ram {
      fill: #18C788;
    }
    @media (prefers-color-scheme: dark) {
      rect {
      fill: #fafafa;
    }
    #ram {
      fill: red;
    }
    }
  </style>
  <g clip-path="url(#clip0)">
    <rect width="80" height="80" rx="10"/>
    <path id="ram" d="M18.566 42.324L24.194 54h5.838L24.11 42.03c2.478-.504 4.452-1.638 5.922-3.402 1.428-1.722 2.184-3.822 2.184-6.3 0-2.688-.924-4.746-2.688-6.258-1.806-1.47-4.284-2.226-7.476-2.226H10.544L6.302 54h5.376l1.638-11.676h5.25zm-3.318-13.86h6.216c1.722 0 3.066.378 4.032 1.092.966.756 1.47 1.764 1.47 3.066 0 1.47-.546 2.688-1.638 3.654-1.092.966-2.52 1.428-4.284 1.428h-7.056l1.26-9.24zM52.846 50.094c-.755 0-1.217-.084-1.47-.336-.252-.21-.335-.588-.252-1.134l1.344-9.492c.336-2.268-.252-4.116-1.68-5.502-1.427-1.386-3.485-2.1-6.173-2.1-2.269 0-4.242.546-5.88 1.596-1.68 1.092-2.898 2.562-3.654 4.494l4.493 1.386c.42-1.05.967-1.848 1.723-2.352.756-.504 1.68-.756 2.772-.756 1.217.042 2.142.378 2.771.966.588.588.84 1.428.672 2.436l-.084.504-6.131.924c-2.688.42-4.788 1.26-6.216 2.52-1.47 1.302-2.184 2.94-2.184 4.872s.63 3.444 1.974 4.578c1.343 1.134 3.066 1.68 5.25 1.68 1.301 0 2.477-.21 3.57-.63a6.74 6.74 0 002.645-1.806c.337.84 1.05 1.47 2.142 1.848 1.093.42 2.352.462 3.822.21l.547-3.906zm-11.591.252c-1.093 0-1.933-.21-2.52-.63-.588-.42-.883-1.05-.883-1.848 0-.924.295-1.638.967-2.184.63-.546 1.637-.924 2.981-1.176l5.083-.798-.379 2.688a4.294 4.294 0 01-1.68 2.898c-.923.714-2.142 1.05-3.57 1.05zM67.768 36.234c1.26 0 2.142.42 2.688 1.218.504.798.672 1.932.504 3.444L69.112 54h5.04l1.806-12.936c.168-1.428.756-2.562 1.68-3.486.924-.882 2.016-1.344 3.276-1.344 1.218 0 2.1.42 2.646 1.218.546.798.714 1.932.504 3.444L82.216 54h5.04l2.058-14.574c.336-2.268-.126-4.158-1.386-5.67-1.26-1.47-2.982-2.226-5.166-2.226a9.184 9.184 0 00-3.948.882 9.954 9.954 0 00-3.276 2.478c-.462-1.008-1.176-1.848-2.184-2.436a6.696 6.696 0 00-3.444-.924c-1.26 0-2.394.252-3.444.714-1.092.462-1.932 1.092-2.604 1.89l.294-2.184h-5.04L56.008 54h5.04l1.806-12.852c.168-1.428.714-2.604 1.638-3.528.924-.924 2.016-1.386 3.276-1.386zM114.145 31.95h-5.418l-7.476 15.456-3.234-15.456h-5.082l4.914 21.21-1.092 2.1c-.42.84-.882 1.386-1.386 1.722-.504.336-1.092.504-1.848.504-.336 0-.63 0-.924-.042-.336-.042-.63-.126-.924-.21l-.588 4.242c.378.084.798.168 1.218.21.42.042.882.042 1.344.042 1.848 0 3.402-.378 4.578-1.218 1.176-.84 2.352-2.31 3.444-4.452l12.474-24.108z"/>
  </g>
</svg>
